grf
version=1
nRows=17
nColumns=37
inDegrees=no
endheader
time	ground_force_1_vx	ground_force_1_vy	ground_force_1_vz	ground_force_1_px	ground_force_1_py	ground_force_1_pz	ground_moment_1_mx	ground_moment_1_my	ground_moment_1_mz	ground_force_2_vx	ground_force_2_vy	ground_force_2_vz	ground_force_2_px	ground_force_2_py	ground_force_2_pz	ground_moment_2_mx	ground_moment_2_my	ground_moment_2_mz	ground_force_3_vx	ground_force_3_vy	ground_force_3_vz	ground_force_3_px	ground_force_3_py	ground_force_3_pz	ground_moment_3_mx	ground_moment_3_my	ground_moment_3_mz	ground_force_4_vx	ground_force_4_vy	ground_force_4_vz	ground_force_4_px	ground_force_4_py	ground_force_4_pz	ground_moment_4_mx	ground_moment_4_my	ground_moment_4_mz
      1.58000000	      0.00000000	     -0.00000000	      0.00000000	      0.00000000	      0.00000000	      0.00000000	      0.00000000	      0.00000000	      0.00000000	     -5.86966467	     96.49179840	   -622.65625000	   -221.76011292	  -1211.06573400	      0.00000000	      0.00000000	      0.00000000	   8277.69373157	     -5.71539681	    -91.95573375	   -582.51824951	   -248.69732418	   -588.27542022	      0.00000000	      0.00000000	     -0.00000000	 -12127.31340569	      0.00000000	     -0.00000000	      0.00000000	      0.00000000	      0.00000000	      0.00000000	      0.00000000	      0.00000000	      0.00000000
      1.59000000	      0.00000000	     -0.00000000	      0.00000000	      0.00000000	      0.00000000	      0.00000000	      0.00000000	      0.00000000	      0.00000000	     -4.48141098	     97.24127197	   -624.50482178	   -220.78835429	  -1211.12943263	      0.00000000	      0.00000000	      0.00000000	   8439.97296019	     -4.82450476	    -91.71528583	   -583.51293945	   -248.00618593	   -587.79170847	      0.00000000	      0.00000000	     -0.00000000	 -12373.49221112	      0.00000000	     -0.00000000	      0.00000000	      0.00000000	      0.00000000	      0.00000000	      0.00000000	      0.00000000	      0.00000000
      1.60000000	      0.00000000	     -0.00000000	      0.00000000	      0.00000000	      0.00000000	      0.00000000	      0.00000000	      0.00000000	      0.00000000	     -3.44547868	     96.90322876	   -630.47363281	   -220.57529914	  -1212.17644070	      0.00000000	      0.00000000	      0.00000000	   8638.11978904	     -4.04630407	    -90.96863521	   -583.48944092	   -247.47005083	   -588.47439347	      0.00000000	      0.00000000	     -0.00000000	 -12514.27677715	      0.00000000	     -0.00000000	      0.00000000	      0.00000000	      0.00000000	      0.00000000	      0.00000000	      0.00000000	      0.00000000
      1.61000000	      0.00000000	     -0.00000000	      0.00000000	      0.00000000	      0.00000000	      0.00000000	      0.00000000	      0.00000000	      0.00000000	     -1.95184851	     96.49492645	   -632.33959961	   -220.01774783	  -1212.04900151	      0.00000000	     -0.00000000	      0.00000000	   8571.15130111	     -2.98150903	    -90.72363255	   -584.95739746	   -247.06149138	   -588.26458761	      0.00000000	      0.00000000	     -0.00000000	 -12649.83282934	      0.00000000	     -0.00000000	      0.00000000	      0.00000000	      0.00000000	      0.00000000	      0.00000000	      0.00000000	      0.00000000
      1.62000000	      0.00000000	     -0.00000000	      0.00000000	      0.00000000	      0.00000000	      0.00000000	      0.00000000	      0.00000000	      0.00000000	     -2.10351229	     96.13883972	   -633.26995850	   -219.20424038	  -1211.50588931	      0.00000000	      0.00000000	      0.00000000	   8666.87004262	     -1.73793917	    -90.60198196	   -586.57470703	   -246.63305191	   -587.30833519	      0.00000000	      0.00000000	     -0.00000000	 -12820.34996253	      0.00000000	     -0.00000000	      0.00000000	      0.00000000	      0.00000000	      0.00000000	      0.00000000	      0.00000000	      0.00000000
      1.63000000	      0.00000000	     -0.00000000	      0.00000000	      0.00000000	      0.00000000	      0.00000000	      0.00000000	      0.00000000	      0.00000000	     -2.24387264	     95.90431213	   -634.96362305	   -218.13355450	  -1212.10562590	      0.00000000	      0.00000000	      0.00000000	   8735.61075827	     -0.08940438	    -89.43412780	   -586.22827148	   -246.54674489	   -587.72918990	      0.00000000	      0.00000000	     -0.00000000	 -12785.14506405	      0.00000000	     -0.00000000	      0.00000000	      0.00000000	      0.00000000	      0.00000000	      0.00000000	      0.00000000	      0.00000000
      1.64000000	      0.00000000	     -0.00000000	      0.00000000	      0.00000000	      0.00000000	      0.00000000	      0.00000000	      0.00000000	      0.00000000	     -1.80920315	     95.17225647	   -637.71582031	   -217.66039990	  -1212.74844607	      0.00000000	     -0.00000000	      0.00000000	   8928.35118964	      1.57904846	    -87.89774336	   -583.43237305	   -245.71476329	   -587.47058877	      0.00000000	      0.00000000	     -0.00000000	 -12849.86080768	      0.00000000	     -0.00000000	      0.00000000	      0.00000000	      0.00000000	      0.00000000	      0.00000000	      0.00000000	      0.00000000
      1.65000000	      0.00000000	     -0.00000000	      0.00000000	      0.00000000	      0.00000000	      0.00000000	      0.00000000	      0.00000000	      0.00000000	     -1.62495685	     94.67635345	   -637.46356201	   -217.42653030	  -1212.39197946	      0.00000000	      0.00000000	      0.00000000	   9007.05005381	      3.74307192	    -85.77815279	   -583.36206055	   -245.00495920	   -587.71603079	      0.00000000	      0.00000000	     -0.00000000	 -13016.40096470	      0.00000000	     -0.00000000	      0.00000000	      0.00000000	      0.00000000	      0.00000000	      0.00000000	      0.00000000	      0.00000000
      1.66000000	      0.00000000	     -0.00000000	      0.00000000	      0.00000000	      0.00000000	      0.00000000	      0.00000000	      0.00000000	      0.00000000	     -1.31884551	     95.40077972	   -636.73614502	   -215.85817604	  -1212.93806630	      0.00000000	      0.00000000	      0.00000000	   8795.54233761	      5.42936493	    -84.43553209	   -582.59759521	   -245.01227956	   -587.63185402	      0.00000000	      0.00000000	     -0.00000000	 -13107.36737772	      0.00000000	     -0.00000000	      0.00000000	      0.00000000	      0.00000000	      0.00000000	      0.00000000	      0.00000000	      0.00000000
      1.67000000	      0.00000000	     -0.00000000	      0.00000000	      0.00000000	      0.00000000	      0.00000000	      0.00000000	      0.00000000	      0.00000000	     -1.91230536	     95.52836609	   -634.46508789	   -214.94457260	  -1213.44920114	      0.00000000	      0.00000000	      0.00000000	   8695.72947394	      6.01418200	    -82.89793449	   -582.30554199	   -244.09149406	   -587.33001065	      0.00000000	      0.00000000	     -0.00000000	 -13163.70262444	      0.00000000	     -0.00000000	      0.00000000	      0.00000000	      0.00000000	      0.00000000	      0.00000000	      0.00000000	      0.00000000
      1.68000000	      0.00000000	     -0.00000000	      0.00000000	      0.00000000	      0.00000000	      0.00000000	      0.00000000	      0.00000000	      0.00000000	     -2.57620096	     95.33907318	   -631.45135498	   -213.60755112	  -1213.89948702	      0.00000000	      0.00000000	      0.00000000	   8637.49309849	      6.14199210	    -81.69490105	   -581.25500488	   -243.43453135	   -587.68670917	      0.00000000	      0.00000000	     -0.00000000	 -13191.33375410	      0.00000000	     -0.00000000	      0.00000000	      0.00000000	      0.00000000	      0.00000000	      0.00000000	      0.00000000	      0.00000000
      1.69000000	      0.00000000	     -0.00000000	      0.00000000	      0.00000000	      0.00000000	      0.00000000	      0.00000000	      0.00000000	      0.00000000	     -2.92525911	     94.83474731	   -626.30712891	   -212.30039051	  -1214.16563874	      0.00000000	      0.00000000	      0.00000000	   8372.70881040	      5.80635939	    -80.70769551	   -578.26751709	   -242.27351276	   -587.00505543	      0.00000000	      0.00000000	     -0.00000000	 -13305.98781852	      0.00000000	     -0.00000000	      0.00000000	      0.00000000	      0.00000000	      0.00000000	      0.00000000	      0.00000000	      0.00000000
      1.70000000	      0.00000000	     -0.00000000	      0.00000000	      0.00000000	      0.00000000	      0.00000000	      0.00000000	      0.00000000	      0.00000000	     -3.31085134	     93.97306824	   -621.55792236	   -210.72619647	  -1214.43123403	      0.00000000	      0.00000000	      0.00000000	   8462.22077846	      4.94924322	    -80.11181684	   -575.75097656	   -240.94649994	   -586.27812019	      0.00000000	      0.00000000	     -0.00000000	 -13148.30717857	      0.00000000	     -0.00000000	      0.00000000	      0.00000000	      0.00000000	      0.00000000	      0.00000000	      0.00000000	      0.00000000
      1.71000000	      0.00000000	     -0.00000000	      0.00000000	      0.00000000	      0.00000000	      0.00000000	      0.00000000	      0.00000000	      0.00000000	     -3.37137985	     92.53732300	   -616.88403320	   -209.71171981	  -1215.16071510	      0.00000000	      0.00000000	      0.00000000	   8664.84998691	      3.87057774	    -79.87998996	   -569.66845703	   -239.20252569	   -585.99543166	      0.00000000	      0.00000000	     -0.00000000	 -13053.36753429	      0.00000000	     -0.00000000	      0.00000000	      0.00000000	      0.00000000	      0.00000000	      0.00000000	      0.00000000	      0.00000000
      1.72000000	      0.00000000	     -0.00000000	      0.00000000	      0.00000000	      0.00000000	      0.00000000	      0.00000000	      0.00000000	      0.00000000	     -4.90657806	     91.45916748	   -611.08099365	   -208.02407723	  -1215.08161686	      0.00000000	     -0.00000000	      0.00000000	   8593.47467382	      2.68013304	    -79.82407403	   -564.77923584	   -237.38088179	   -584.57667641	      0.00000000	      0.00000000	     -0.00000000	 -12893.11167588	      0.00000000	     -0.00000000	      0.00000000	      0.00000000	      0.00000000	      0.00000000	      0.00000000	      0.00000000	      0.00000000
      1.73000000	      0.00000000	     -0.00000000	      0.00000000	      0.00000000	      0.00000000	      0.00000000	      0.00000000	      0.00000000	      0.00000000	     -5.99735689	     90.52806854	   -605.54321289	   -207.10126376	  -1215.30280470	      0.00000000	      0.00000000	      0.00000000	   8406.86709397	      0.77944044	    -79.35061652	   -558.91711426	   -235.67469661	   -584.77741092	      0.00000000	      0.00000000	     -0.00000000	 -12835.81215409	      0.00000000	     -0.00000000	      0.00000000	      0.00000000	      0.00000000	      0.00000000	      0.00000000	      0.00000000	      0.00000000
      1.74000000	      0.00000000	     -0.00000000	      0.00000000	      0.00000000	      0.00000000	      0.00000000	      0.00000000	      0.00000000	      0.00000000	     -7.24644756	     89.96057892	   -597.85284424	   -205.14431966	  -1214.82083426	      0.00000000	      0.00000000	      0.00000000	   8606.10039952	     -1.11506236	    -79.15523519	   -554.50128174	   -234.18410626	   -583.45310406	      0.00000000	      0.00000000	      0.00000000	 -12657.97985575	      0.00000000	     -0.00000000	      0.00000000	      0.00000000	      0.00000000	      0.00000000	      0.00000000	      0.00000000	      0.00000000
